<svg width="847" height="257" viewBox="0 0 847 257" fill="none" xmlns="http://www.w3.org/2000/svg">
<path d="M60.2514 243.431C60.2514 241.463 60.5717 239.93 61.2124 238.832C61.8531 237.722 62.9742 237.168 64.5759 237.168C66.1661 237.168 67.2816 237.722 67.9223 238.832C68.5629 239.93 68.8833 241.463 68.8833 243.431C68.8833 245.433 68.5629 246.989 67.9223 248.099C67.2816 249.209 66.1661 249.764 64.5759 249.764C62.9742 249.764 61.8531 249.209 61.2124 248.099C60.5717 246.989 60.2514 245.433 60.2514 243.431ZM67.3388 243.431C67.3388 242.436 67.2702 241.595 67.1329 240.909C67.007 240.211 66.7382 239.65 66.3263 239.227C65.9259 238.804 65.3424 238.592 64.5759 238.592C63.798 238.592 63.2031 238.804 62.7912 239.227C62.3908 239.65 62.1219 240.211 61.9846 240.909C61.8588 241.595 61.7959 242.436 61.7959 243.431C61.7959 244.461 61.8588 245.325 61.9846 246.023C62.1219 246.72 62.3908 247.281 62.7912 247.704C63.2031 248.128 63.798 248.339 64.5759 248.339C65.3424 248.339 65.9259 248.128 66.3263 247.704C66.7382 247.281 67.007 246.72 67.1329 246.023C67.2702 245.325 67.3388 244.461 67.3388 243.431ZM77.9429 240.308C77.6912 239.038 76.9076 238.403 75.5919 238.403C74.5737 238.403 73.8129 238.798 73.3095 239.587C72.8062 240.365 72.5602 241.652 72.5716 243.448C72.8348 242.853 73.2695 242.39 73.8758 242.058C74.4936 241.715 75.1801 241.544 75.9351 241.544C77.1135 241.544 78.0516 241.91 78.7495 242.642C79.4588 243.374 79.8135 244.387 79.8135 245.679C79.8135 246.457 79.659 247.155 79.3501 247.773C79.0527 248.391 78.595 248.883 77.9773 249.249C77.3709 249.615 76.633 249.798 75.7635 249.798C74.5851 249.798 73.6642 249.535 73.0006 249.008C72.3371 248.482 71.8738 247.756 71.6106 246.829C71.3475 245.902 71.2159 244.758 71.2159 243.397C71.2159 239.198 72.6803 237.099 75.6091 237.099C76.7302 237.099 77.6112 237.402 78.2518 238.008C78.8925 238.615 79.27 239.381 79.3844 240.308H77.9429ZM75.6091 242.865C75.1171 242.865 74.6538 242.968 74.2191 243.174C73.7843 243.368 73.4297 243.671 73.1551 244.083C72.892 244.484 72.7604 244.976 72.7604 245.559C72.7604 246.429 73.0121 247.138 73.5155 247.687C74.0188 248.225 74.7396 248.494 75.6777 248.494C76.4786 248.494 77.1135 248.248 77.5826 247.756C78.0631 247.252 78.3033 246.577 78.3033 245.731C78.3033 244.838 78.0745 244.141 77.6169 243.637C77.1593 243.122 76.49 242.865 75.6091 242.865Z" fill="white"/>
<path d="M141.152 243.431C141.152 241.463 141.472 239.93 142.113 238.832C142.754 237.722 143.875 237.168 145.477 237.168C147.067 237.168 148.182 237.722 148.823 238.832C149.464 239.93 149.784 241.463 149.784 243.431C149.784 245.433 149.464 246.989 148.823 248.099C148.182 249.209 147.067 249.764 145.477 249.764C143.875 249.764 142.754 249.209 142.113 248.099C141.472 246.989 141.152 245.433 141.152 243.431ZM148.239 243.431C148.239 242.436 148.171 241.595 148.034 240.909C147.908 240.211 147.639 239.65 147.227 239.227C146.827 238.804 146.243 238.592 145.477 238.592C144.699 238.592 144.104 238.804 143.692 239.227C143.291 239.65 143.023 240.211 142.885 240.909C142.759 241.595 142.697 242.436 142.697 243.431C142.697 244.461 142.759 245.325 142.885 246.023C143.023 246.72 143.291 247.281 143.692 247.704C144.104 248.128 144.699 248.339 145.477 248.339C146.243 248.339 146.827 248.128 147.227 247.704C147.639 247.281 147.908 246.72 148.034 246.023C148.171 245.325 148.239 244.461 148.239 243.431ZM159.564 238.575L154.794 249.764H153.215L158.054 238.729H151.43V237.391H159.564V238.575Z" fill="white"/>
<path d="M220.827 243.431C220.827 241.463 221.147 239.93 221.788 238.832C222.429 237.722 223.55 237.168 225.151 237.168C226.742 237.168 227.857 237.722 228.498 238.832C229.138 239.93 229.459 241.463 229.459 243.431C229.459 245.433 229.138 246.989 228.498 248.099C227.857 249.209 226.742 249.764 225.151 249.764C223.55 249.764 222.429 249.209 221.788 248.099C221.147 246.989 220.827 245.433 220.827 243.431ZM227.914 243.431C227.914 242.436 227.846 241.595 227.708 240.909C227.583 240.211 227.314 239.65 226.902 239.227C226.501 238.804 225.918 238.592 225.151 238.592C224.374 238.592 223.779 238.804 223.367 239.227C222.966 239.65 222.697 240.211 222.56 240.909C222.434 241.595 222.371 242.436 222.371 243.431C222.371 244.461 222.434 245.325 222.56 246.023C222.697 246.72 222.966 247.281 223.367 247.704C223.779 248.128 224.374 248.339 225.151 248.339C225.918 248.339 226.501 248.128 226.902 247.704C227.314 247.281 227.583 246.72 227.708 246.023C227.846 245.325 227.914 244.461 227.914 243.431ZM233.868 243.311C233.227 243.059 232.735 242.693 232.392 242.213C232.049 241.732 231.877 241.149 231.877 240.462C231.877 239.845 232.032 239.29 232.341 238.798C232.65 238.294 233.107 237.9 233.713 237.614C234.331 237.316 235.075 237.168 235.944 237.168C236.814 237.168 237.552 237.316 238.158 237.614C238.776 237.9 239.239 238.294 239.548 238.798C239.868 239.29 240.029 239.845 240.029 240.462C240.029 241.126 239.851 241.709 239.497 242.213C239.142 242.705 238.656 243.071 238.038 243.311C238.747 243.528 239.308 243.912 239.72 244.461C240.143 244.999 240.355 245.651 240.355 246.417C240.355 247.161 240.172 247.813 239.806 248.374C239.439 248.923 238.919 249.352 238.244 249.661C237.58 249.958 236.814 250.107 235.944 250.107C235.075 250.107 234.308 249.958 233.645 249.661C232.993 249.352 232.484 248.923 232.118 248.374C231.751 247.813 231.568 247.161 231.568 246.417C231.568 245.651 231.774 244.993 232.186 244.444C232.598 243.895 233.159 243.517 233.868 243.311ZM238.518 240.651C238.518 239.953 238.29 239.416 237.832 239.038C237.374 238.661 236.745 238.472 235.944 238.472C235.155 238.472 234.531 238.661 234.074 239.038C233.616 239.416 233.387 239.959 233.387 240.668C233.387 241.309 233.622 241.824 234.091 242.213C234.572 242.602 235.189 242.796 235.944 242.796C236.711 242.796 237.329 242.602 237.798 242.213C238.278 241.812 238.518 241.292 238.518 240.651ZM235.944 243.998C235.098 243.998 234.406 244.198 233.868 244.598C233.33 244.987 233.061 245.576 233.061 246.366C233.061 247.098 233.319 247.687 233.834 248.133C234.36 248.579 235.063 248.803 235.944 248.803C236.825 248.803 237.523 248.579 238.038 248.133C238.553 247.687 238.81 247.098 238.81 246.366C238.81 245.599 238.547 245.016 238.021 244.615C237.495 244.203 236.802 243.998 235.944 243.998Z" fill="white"/>
<path d="M301.728 243.431C301.728 241.463 302.048 239.93 302.689 238.832C303.329 237.722 304.451 237.168 306.052 237.168C307.642 237.168 308.758 237.722 309.399 238.832C310.039 239.93 310.36 241.463 310.36 243.431C310.36 245.433 310.039 246.989 309.399 248.099C308.758 249.209 307.642 249.764 306.052 249.764C304.451 249.764 303.329 249.209 302.689 248.099C302.048 246.989 301.728 245.433 301.728 243.431ZM308.815 243.431C308.815 242.436 308.746 241.595 308.609 240.909C308.483 240.211 308.214 239.65 307.803 239.227C307.402 238.804 306.819 238.592 306.052 238.592C305.274 238.592 304.679 238.804 304.267 239.227C303.867 239.65 303.598 240.211 303.461 240.909C303.335 241.595 303.272 242.436 303.272 243.431C303.272 244.461 303.335 245.325 303.461 246.023C303.598 246.72 303.867 247.281 304.267 247.704C304.679 248.128 305.274 248.339 306.052 248.339C306.819 248.339 307.402 248.128 307.803 247.704C308.214 247.281 308.483 246.72 308.609 246.023C308.746 245.325 308.815 244.461 308.815 243.431ZM314.511 246.434C314.626 247.086 314.889 247.59 315.301 247.945C315.724 248.299 316.29 248.476 317 248.476C317.949 248.476 318.647 248.105 319.093 247.361C319.551 246.617 319.768 245.365 319.745 243.603C319.505 244.118 319.105 244.524 318.544 244.821C317.983 245.107 317.36 245.25 316.673 245.25C315.907 245.25 315.221 245.096 314.614 244.787C314.019 244.467 313.55 244.003 313.207 243.397C312.864 242.791 312.692 242.058 312.692 241.2C312.692 239.976 313.047 238.992 313.756 238.249C314.465 237.494 315.472 237.116 316.776 237.116C318.378 237.116 319.499 237.637 320.14 238.678C320.792 239.719 321.118 241.269 321.118 243.328C321.118 244.77 320.987 245.96 320.723 246.898C320.472 247.836 320.037 248.551 319.419 249.043C318.813 249.535 317.978 249.781 316.914 249.781C315.747 249.781 314.837 249.466 314.185 248.837C313.533 248.208 313.161 247.407 313.07 246.434H314.511ZM316.931 243.929C317.697 243.929 318.327 243.694 318.819 243.225C319.311 242.745 319.556 242.098 319.556 241.286C319.556 240.428 319.316 239.736 318.836 239.21C318.355 238.683 317.68 238.42 316.811 238.42C316.01 238.42 315.369 238.672 314.889 239.175C314.42 239.679 314.185 240.342 314.185 241.166C314.185 242.001 314.42 242.67 314.889 243.174C315.358 243.677 316.039 243.929 316.931 243.929Z" fill="white"/>
<path d="M382.217 238.781V237.356H385.443V249.764H383.864V238.781H382.217ZM388.125 243.431C388.125 241.463 388.446 239.93 389.086 238.832C389.727 237.722 390.848 237.168 392.45 237.168C394.04 237.168 395.155 237.722 395.796 238.832C396.437 239.93 396.757 241.463 396.757 243.431C396.757 245.433 396.437 246.989 395.796 248.099C395.155 249.209 394.04 249.764 392.45 249.764C390.848 249.764 389.727 249.209 389.086 248.099C388.446 246.989 388.125 245.433 388.125 243.431ZM395.213 243.431C395.213 242.436 395.144 241.595 395.007 240.909C394.881 240.211 394.612 239.65 394.2 239.227C393.8 238.804 393.216 238.592 392.45 238.592C391.672 238.592 391.077 238.804 390.665 239.227C390.265 239.65 389.996 240.211 389.858 240.909C389.733 241.595 389.67 242.436 389.67 243.431C389.67 244.461 389.733 245.325 389.858 246.023C389.996 246.72 390.265 247.281 390.665 247.704C391.077 248.128 391.672 248.339 392.45 248.339C393.216 248.339 393.8 248.128 394.2 247.704C394.612 247.281 394.881 246.72 395.007 246.023C395.144 245.325 395.213 244.461 395.213 243.431Z" fill="white"/>
<path d="M458.214 238.781V237.356H461.44V249.764H459.862V238.781H458.214ZM463.711 238.781V237.356H466.937V249.764H465.358V238.781H463.711Z" fill="white"/>
<path d="M528.083 238.781V237.356H531.309V249.764H529.73V238.781H528.083ZM533.803 248.511C535.256 247.344 536.394 246.389 537.218 245.645C538.041 244.89 538.734 244.106 539.294 243.294C539.866 242.47 540.152 241.664 540.152 240.874C540.152 240.131 539.969 239.547 539.603 239.124C539.248 238.689 538.671 238.472 537.87 238.472C537.092 238.472 536.486 238.718 536.051 239.21C535.628 239.69 535.399 240.337 535.364 241.149H533.854C533.9 239.868 534.289 238.878 535.021 238.18C535.753 237.482 536.697 237.133 537.853 237.133C539.031 237.133 539.964 237.459 540.65 238.111C541.348 238.764 541.697 239.662 541.697 240.806C541.697 241.755 541.411 242.682 540.839 243.586C540.278 244.478 539.637 245.267 538.917 245.954C538.196 246.629 537.275 247.418 536.154 248.322H542.057V249.626H533.803V248.511Z" fill="white"/>
<path d="M602.855 238.781V237.356H606.081V249.764H604.502V238.781H602.855ZM608.729 240.48C608.809 239.427 609.215 238.603 609.948 238.008C610.68 237.414 611.629 237.116 612.796 237.116C613.574 237.116 614.243 237.259 614.804 237.545C615.376 237.82 615.805 238.197 616.091 238.678C616.389 239.158 616.537 239.702 616.537 240.308C616.537 241.017 616.331 241.629 615.919 242.144C615.519 242.659 614.993 242.991 614.341 243.139V243.225C615.084 243.408 615.673 243.769 616.108 244.306C616.543 244.844 616.76 245.548 616.76 246.417C616.76 247.069 616.612 247.658 616.314 248.185C616.017 248.7 615.571 249.106 614.976 249.403C614.381 249.701 613.666 249.849 612.831 249.849C611.618 249.849 610.622 249.535 609.845 248.906C609.067 248.265 608.632 247.361 608.54 246.194H610.05C610.131 246.881 610.411 247.441 610.891 247.876C611.372 248.311 612.013 248.528 612.813 248.528C613.614 248.528 614.221 248.322 614.632 247.91C615.056 247.487 615.267 246.943 615.267 246.28C615.267 245.422 614.981 244.804 614.409 244.427C613.837 244.049 612.974 243.86 611.818 243.86H611.423V242.556H611.835C612.888 242.545 613.683 242.373 614.221 242.041C614.758 241.698 615.027 241.172 615.027 240.462C615.027 239.856 614.827 239.37 614.426 239.004C614.037 238.638 613.477 238.455 612.745 238.455C612.035 238.455 611.463 238.638 611.029 239.004C610.594 239.37 610.336 239.862 610.256 240.48H608.729Z" fill="white"/>
<path d="M677.627 238.781V237.356H680.853V249.764H679.274V238.781H677.627ZM683.158 247.001V245.817L689.181 237.476H691.052V245.645H692.768V247.001H691.052V249.764H689.507V247.001H683.158ZM689.576 239.107L684.96 245.645H689.576V239.107Z" fill="white"/>
<path d="M753.624 238.781V237.356H756.85V249.764H755.272V238.781H753.624ZM767.444 238.712H761.421V242.625C761.684 242.259 762.073 241.961 762.588 241.732C763.102 241.492 763.657 241.372 764.252 241.372C765.202 241.372 765.974 241.572 766.569 241.973C767.164 242.362 767.587 242.871 767.839 243.5C768.102 244.118 768.233 244.775 768.233 245.473C768.233 246.297 768.079 247.035 767.77 247.687C767.461 248.339 766.986 248.854 766.346 249.232C765.717 249.609 764.933 249.798 763.995 249.798C762.793 249.798 761.821 249.489 761.077 248.871C760.334 248.253 759.882 247.43 759.722 246.4H761.249C761.398 247.052 761.712 247.561 762.193 247.927C762.673 248.293 763.28 248.476 764.012 248.476C764.916 248.476 765.596 248.208 766.054 247.67C766.512 247.121 766.74 246.4 766.74 245.508C766.74 244.615 766.512 243.929 766.054 243.448C765.596 242.956 764.921 242.71 764.029 242.71C763.423 242.71 762.891 242.859 762.433 243.157C761.987 243.443 761.661 243.837 761.455 244.341H759.979V237.339H767.444V238.712Z" fill="white"/>
<path d="M827.744 249.15L835.099 241.796L827.744 234.441" fill="white"/>
<path d="M18.7371 249.15L11.3825 241.796L18.7371 234.441" fill="white"/>
<path d="M58.9445 169.975C58.9445 165.764 62.3583 162.35 66.5695 162.35C70.7806 162.35 74.1945 165.764 74.1945 169.975V216.361H58.9445V169.975Z" fill="white"/>
<path d="M79.9081 133.021C79.9081 128.81 83.322 125.396 87.5331 125.396C91.7443 125.396 95.1581 128.81 95.1581 133.021V216.361H79.9081V133.021Z" fill="#22DBBA"/>
<path d="M135.194 81.8531C135.194 77.642 138.608 74.2281 142.819 74.2281C147.031 74.2281 150.444 77.642 150.444 81.8531V216.361H135.194V81.8531Z" fill="white"/>
<path d="M156.158 155.762C156.158 151.551 159.572 148.137 163.783 148.137C167.995 148.137 171.408 151.551 171.408 155.762V216.361H156.158V155.762Z" fill="#22DBBA"/>
<path d="M211.445 113.122C211.445 108.911 214.858 105.497 219.07 105.497C223.281 105.497 226.695 108.911 226.695 113.122V216.361H211.445V113.122Z" fill="white"/>
<path d="M232.409 187.031C232.409 182.82 235.822 179.406 240.034 179.406C244.245 179.406 247.659 182.82 247.659 187.031V216.361H232.409V187.031Z" fill="#22DBBA"/>
<path d="M287.694 113.122C287.694 108.911 291.108 105.497 295.319 105.497C299.531 105.497 302.944 108.911 302.944 113.122V216.361H287.694V113.122Z" fill="white"/>
<path d="M308.659 81.8531C308.659 77.6419 312.073 74.2281 316.284 74.2281C320.495 74.2281 323.909 77.6419 323.909 81.8531V216.361H308.659V81.8531Z" fill="#22DBBA"/>
<path d="M363.944 7.94415C363.944 3.73298 367.358 0.319153 371.569 0.319153C375.781 0.319153 379.194 3.73298 379.194 7.94415V216.361H363.944V7.94415Z" fill="white"/>
<path d="M384.909 113.122C384.909 108.911 388.323 105.497 392.534 105.497C396.745 105.497 400.159 108.911 400.159 113.122V216.361H384.909V113.122Z" fill="#22DBBA"/>
<path d="M440.194 81.8531C440.194 77.642 443.608 74.2281 447.819 74.2281C452.031 74.2281 455.444 77.642 455.444 81.8531V216.361H440.194V81.8531Z" fill="white"/>
<path d="M461.159 113.122C461.159 108.911 464.573 105.497 468.784 105.497C472.995 105.497 476.409 108.911 476.409 113.122V216.361H461.159V113.122Z" fill="#22DBBA"/>
<path d="M516.444 155.762C516.444 151.551 519.858 148.137 524.069 148.137C528.281 148.137 531.694 151.551 531.694 155.762V216.361H516.444V155.762Z" fill="white"/>
<path d="M537.408 81.8531C537.408 77.6419 540.822 74.2281 545.033 74.2281C549.244 74.2281 552.658 77.6419 552.658 81.8531V216.361H537.408V81.8531Z" fill="#22DBBA"/>
<path d="M592.694 44.8986C592.694 40.6875 596.108 37.2736 600.319 37.2736C604.531 37.2736 607.944 40.6874 607.944 44.8986V216.361H592.694V44.8986Z" fill="white"/>
<path d="M613.658 113.122C613.658 108.911 617.072 105.497 621.283 105.497C625.495 105.497 628.908 108.911 628.908 113.122V216.361H613.658V113.122Z" fill="#22DBBA"/>
<path d="M668.944 81.8531C668.944 77.642 672.358 74.2281 676.569 74.2281C680.781 74.2281 684.194 77.642 684.194 81.8531V216.361H668.944V81.8531Z" fill="white"/>
<path d="M689.909 204.087C689.909 199.876 693.323 196.462 697.534 196.462C701.745 196.462 705.159 199.876 705.159 204.087V216.361H689.909V204.087Z" fill="#22DBBA"/>
<path d="M745.194 155.762C745.194 151.551 748.608 148.137 752.819 148.137C757.031 148.137 760.444 151.551 760.444 155.762V216.361H745.194V155.762Z" fill="white"/>
<path d="M766.159 33.528C766.159 29.3168 769.573 25.903 773.784 25.903C777.995 25.903 781.409 29.3168 781.409 33.528V216.361H766.159V33.528Z" fill="#22DBBA"/>
</svg>
