<svg width="342" height="364" viewBox="0 0 342 364" fill="none" xmlns="http://www.w3.org/2000/svg">
<rect x="0.00784302" y="312.694" width="341.989" height="1.22577" rx="0.612884" fill="#323940"/>
<rect x="0.00784302" y="250.18" width="341.989" height="1.22577" rx="0.612884" fill="#323940"/>
<rect x="0.00784302" y="187.665" width="341.989" height="1.22577" rx="0.612884" fill="#323940"/>
<rect x="0.00784302" y="125.151" width="341.989" height="1.22577" rx="0.612884" fill="#323940"/>
<rect x="0.00784302" y="62.6371" width="341.989" height="1.22577" rx="0.612884" fill="#323940"/>
<rect x="0.00784302" y="0.122925" width="341.989" height="1.22577" rx="0.612884" fill="#323940"/>
<path d="M8.58823 7.47753C8.58823 4.09267 11.3322 1.34869 14.7171 1.34869H17.1686C20.5535 1.34869 23.2974 4.09267 23.2974 7.47753V313.92H8.58823V7.47753Z" fill="#3B444D"/>
<path d="M8.58823 61.4764C8.58823 58.0915 11.3322 55.3475 14.7171 55.3475H17.1686C20.5535 55.3475 23.2974 58.0915 23.2974 61.4764V313.919H8.58823V61.4764Z" fill="#13B497"/>
<path d="M60.0705 7.47753C60.0705 4.09267 62.8145 1.34869 66.1993 1.34869H68.6509C72.0357 1.34869 74.7797 4.09267 74.7797 7.47753V313.92H60.0705V7.47753Z" fill="#3B444D"/>
<path d="M60.0705 113.399C60.0705 110.014 62.8145 107.27 66.1993 107.27H68.6509C72.0357 107.27 74.7797 110.014 74.7797 113.399V313.92H60.0705V113.399Z" fill="#13B497"/>
<path d="M111.553 7.47753C111.553 4.09267 114.297 1.34869 117.682 1.34869H120.133C123.518 1.34869 126.262 4.09267 126.262 7.47753V313.92H111.553V7.47753Z" fill="#3B444D"/>
<path d="M111.553 41.7461C111.553 38.3612 114.297 35.6172 117.682 35.6172H120.133C123.518 35.6172 126.262 38.3612 126.262 41.7461V313.92H111.553V41.7461Z" fill="#13B497"/>
<path d="M163.035 7.47753C163.035 4.09267 165.779 1.34869 169.164 1.34869H171.615C175 1.34869 177.744 4.09267 177.744 7.47753V313.92H163.035V7.47753Z" fill="#3B444D"/>
<path d="M163.035 166.359C163.035 162.974 165.779 160.23 169.164 160.23H171.615C175 160.23 177.744 162.974 177.744 166.359V313.92H163.035V166.359Z" fill="#13B497"/>
<path d="M214.517 7.47753C214.517 4.09267 217.261 1.34869 220.646 1.34869H223.098C226.483 1.34869 229.226 4.09267 229.226 7.47753V313.92H214.517V7.47753Z" fill="#3B444D"/>
<path d="M214.517 220.358C214.517 216.973 217.261 214.229 220.646 214.229H223.098C226.483 214.229 229.226 216.973 229.226 220.358V313.92H214.517V220.358Z" fill="#13B497"/>
<path d="M266 7.47753C266 4.09267 268.744 1.34869 272.128 1.34869H274.58C277.965 1.34869 280.709 4.09267 280.709 7.47753V313.92H266V7.47753Z" fill="#3B444D"/>
<path d="M266 108.206C266 104.821 268.744 102.077 272.128 102.077H274.58C277.965 102.077 280.709 104.821 280.709 108.206V313.919H266V108.206Z" fill="#13B497"/>
<path d="M317.482 7.47753C317.482 4.09267 320.226 1.34869 323.611 1.34869H326.062C329.447 1.34869 332.191 4.09267 332.191 7.47753V313.92H317.482V7.47753Z" fill="#3B444D"/>
<path d="M317.482 196.474C317.482 193.089 320.226 190.345 323.611 190.345H326.062C329.447 190.345 332.191 193.089 332.191 196.474V313.92H317.482V196.474Z" fill="#13B497"/>
<path d="M16.1537 356.329C15.3643 356.329 14.655 356.192 14.0258 355.917C13.408 355.631 12.9218 355.243 12.5671 354.751C12.2124 354.247 12.0294 353.669 12.018 353.017H13.6826C13.7398 353.578 13.9686 354.053 14.369 354.442C14.7808 354.819 15.3757 355.008 16.1537 355.008C16.8973 355.008 17.4808 354.825 17.9041 354.459C18.3388 354.081 18.5562 353.601 18.5562 353.017C18.5562 352.56 18.4304 352.188 18.1787 351.902C17.927 351.616 17.6124 351.398 17.2348 351.25C16.8573 351.101 16.3482 350.941 15.7075 350.769C14.9181 350.563 14.2832 350.357 13.8027 350.151C13.3336 349.946 12.9275 349.625 12.5843 349.19C12.2525 348.744 12.0866 348.149 12.0866 347.406C12.0866 346.754 12.2525 346.176 12.5843 345.673C12.916 345.169 13.3794 344.78 13.9743 344.506C14.5806 344.231 15.2728 344.094 16.0507 344.094C17.1719 344.094 18.0871 344.374 18.7965 344.935C19.5172 345.495 19.9233 346.239 20.0149 347.166H18.2988C18.2416 346.708 18.0013 346.307 17.578 345.964C17.1547 345.61 16.5942 345.432 15.8963 345.432C15.2442 345.432 14.7122 345.604 14.3003 345.947C13.8885 346.279 13.6826 346.748 13.6826 347.354C13.6826 347.789 13.8027 348.144 14.0429 348.418C14.2946 348.693 14.5978 348.904 14.9524 349.053C15.3185 349.19 15.8276 349.351 16.4798 349.534C17.2691 349.751 17.9041 349.968 18.3846 350.186C18.8651 350.392 19.277 350.718 19.6202 351.164C19.9634 351.599 20.135 352.194 20.135 352.949C20.135 353.532 19.9805 354.081 19.6717 354.596C19.3628 355.111 18.9051 355.529 18.2988 355.849C17.6924 356.169 16.9774 356.329 16.1537 356.329Z" fill="white" fill-opacity="0.25"/>
<path d="M74.7503 344.334V356.209H73.1887V347.354L69.2417 356.209H68.1434L64.1793 347.337V356.209H62.6176V344.334H64.2994L68.6926 354.15L73.0857 344.334H74.7503Z" fill="white" fill-opacity="0.25"/>
<path d="M125.139 344.248V345.518H121.879V356.209H120.317V345.518H117.039V344.248H125.139Z" fill="white" fill-opacity="0.25"/>
<path d="M181.841 344.248L178.374 356.209H176.624L173.844 346.582L170.961 356.209L169.228 356.226L165.881 344.248H167.546L170.154 354.39L173.037 344.248H174.788L177.533 354.356L180.159 344.248H181.841Z" fill="white" fill-opacity="0.25"/>
<path d="M230.555 344.248V345.518H227.295V356.209H225.733V345.518H222.455V344.248H230.555Z" fill="white" fill-opacity="0.25"/>
<path d="M278.985 344.248V345.518H273.786V349.551H278.007V350.821H273.786V356.209H272.224V344.248H278.985Z" fill="white" fill-opacity="0.25"/>
<path d="M325.047 356.329C324.258 356.329 323.549 356.192 322.919 355.917C322.302 355.631 321.815 355.243 321.461 354.751C321.106 354.247 320.923 353.669 320.912 353.017H322.576C322.633 353.578 322.862 354.053 323.263 354.442C323.674 354.819 324.269 355.008 325.047 355.008C325.791 355.008 326.374 354.825 326.798 354.459C327.232 354.081 327.45 353.601 327.45 353.017C327.45 352.56 327.324 352.188 327.072 351.902C326.821 351.616 326.506 351.398 326.128 351.25C325.751 351.101 325.242 350.941 324.601 350.769C323.812 350.563 323.177 350.357 322.696 350.151C322.227 349.946 321.821 349.625 321.478 349.19C321.146 348.744 320.98 348.149 320.98 347.406C320.98 346.754 321.146 346.176 321.478 345.673C321.81 345.169 322.273 344.78 322.868 344.506C323.474 344.231 324.166 344.094 324.944 344.094C326.065 344.094 326.981 344.374 327.69 344.935C328.411 345.495 328.817 346.239 328.908 347.166H327.192C327.135 346.708 326.895 346.307 326.472 345.964C326.048 345.61 325.488 345.432 324.79 345.432C324.138 345.432 323.606 345.604 323.194 345.947C322.782 346.279 322.576 346.748 322.576 347.354C322.576 347.789 322.696 348.144 322.936 348.418C323.188 348.693 323.491 348.904 323.846 349.053C324.212 349.19 324.721 349.351 325.373 349.534C326.163 349.751 326.798 349.968 327.278 350.186C327.759 350.392 328.171 350.718 328.514 351.164C328.857 351.599 329.029 352.194 329.029 352.949C329.029 353.532 328.874 354.081 328.565 354.596C328.256 355.111 327.799 355.529 327.192 355.849C326.586 356.169 325.871 356.329 325.047 356.329Z" fill="white" fill-opacity="0.25"/>
</svg>
