<svg width="444" height="200" viewBox="0 0 444 200" fill="none" xmlns="http://www.w3.org/2000/svg">
<mask id="mask0_0_1" style="mask-type:alpha" maskUnits="userSpaceOnUse" x="4" y="0" width="423" height="183">
<rect x="4.00824" y="0.755249" width="422.991" height="181.685" rx="17.1608" fill="#2F363D"/>
</mask>
<g mask="url(#mask0_0_1)">
<path d="M140.04 136.086C88.5176 129.471 26.2208 162.629 1.51272 180.035L0.264954 199.807H443.22V108.236C368.489 90.8306 337.502 105.625 283.428 141.742C229.354 177.859 204.443 144.353 140.04 136.086Z" fill="url(#paint0_linear_0_1)"/>
<path fill-rule="evenodd" clip-rule="evenodd" d="M356.159 107.57C332.751 113.577 311.792 126.254 284.762 144.552C271.017 153.857 259.002 158.758 247.653 160.659C236.304 162.559 225.779 161.431 215.07 158.906C207.567 157.136 199.859 154.647 191.716 152.017C188.33 150.923 184.869 149.806 181.317 148.706C169.144 144.935 155.654 141.283 139.739 139.213C114.537 135.934 86.5114 142.51 61.5735 152.214C36.6682 161.906 15.0947 174.618 2.89727 183.327L0.128174 178.881C12.6389 169.949 34.5678 157.037 59.8685 147.192C85.1366 137.359 114.021 130.484 140.341 133.908C156.628 136.027 170.403 139.762 182.704 143.572C186.396 144.716 189.934 145.859 193.358 146.964C201.413 149.566 208.836 151.963 216.144 153.687C226.473 156.123 236.339 157.145 246.882 155.379C257.425 153.614 268.802 149.033 282.094 140.035C309.138 121.728 330.709 108.606 354.996 102.374C379.337 96.1277 406.176 96.8541 443.758 105.726L442.683 110.944C405.533 102.174 379.512 101.578 356.159 107.57Z" fill="#13B497"/>
</g>
<g filter="url(#filter0_d_0_1)">
<path d="M202.402 82.7009C202.402 77.2851 206.793 72.8948 212.208 72.8948H283.683C289.099 72.8948 293.489 77.2851 293.489 82.7009V110.3H212.208C206.793 110.3 202.402 105.91 202.402 100.494V82.7009Z" fill="#2B7769"/>
</g>
<path d="M215.767 93.3385V92.0735L220.709 84.9837H222.739V91.8823H224.107V93.3385H222.739V95.5743H221.092V93.3385H215.767ZM221.165 86.69L217.694 91.8823H221.165V86.69ZM232.41 86.2928H227.482V89.22C227.688 88.9454 227.992 88.7149 228.394 88.5286C228.806 88.3423 229.243 88.2491 229.703 88.2491C230.527 88.2491 231.194 88.4257 231.704 88.7787C232.224 89.1317 232.591 89.5779 232.807 90.1172C233.033 90.6566 233.145 91.2253 233.145 91.8235C233.145 92.5491 233.003 93.1964 232.719 93.7651C232.444 94.3241 232.027 94.7653 231.469 95.0889C230.919 95.4125 230.243 95.5743 229.439 95.5743C228.37 95.5743 227.512 95.3096 226.865 94.78C226.217 94.2505 225.83 93.5494 225.703 92.6766H227.335C227.443 93.1375 227.683 93.5052 228.056 93.7798C228.429 94.0446 228.894 94.177 229.453 94.177C230.15 94.177 230.669 93.9661 231.013 93.5445C231.366 93.1228 231.542 92.5639 231.542 91.8676C231.542 91.1616 231.366 90.6222 231.013 90.2496C230.66 89.8672 230.14 89.6759 229.453 89.6759C228.973 89.6759 228.566 89.7985 228.233 90.0437C227.909 90.279 227.674 90.6026 227.526 91.0145H225.938V84.8219H232.41V86.2928ZM234.67 86.3811V84.8513H237.73V95.5743H236.038V86.3811H234.67ZM243.461 91.5293L247.197 95.5743H244.932L241.931 92.0883V95.5743H240.254V84.6895H241.931V91.0145L244.873 87.4696H247.197L243.461 91.5293ZM253.897 88.661C254.181 88.2884 254.568 87.9746 255.059 87.7196C255.549 87.4647 256.103 87.3372 256.721 87.3372C257.427 87.3372 258.069 87.5137 258.648 87.8667C259.236 88.2099 259.697 88.6953 260.03 89.3229C260.364 89.9505 260.53 90.6713 260.53 91.4852C260.53 92.2991 260.364 93.0296 260.03 93.6769C259.697 94.3143 259.236 94.8144 258.648 95.1772C258.069 95.5302 257.427 95.7067 256.721 95.7067C256.103 95.7067 255.554 95.5841 255.073 95.339C254.593 95.084 254.201 94.7702 253.897 94.3976V99.4282H252.22V87.4696H253.897V88.661ZM258.824 91.4852C258.824 90.9262 258.706 90.4457 258.471 90.0437C258.246 89.6318 257.942 89.3229 257.559 89.117C257.186 88.9013 256.784 88.7934 256.353 88.7934C255.931 88.7934 255.529 88.9013 255.147 89.117C254.774 89.3327 254.47 89.6465 254.235 90.0584C254.009 90.4702 253.897 90.9556 253.897 91.5146C253.897 92.0735 254.009 92.5639 254.235 92.9855C254.47 93.3974 254.774 93.7112 255.147 93.9269C255.529 94.1426 255.931 94.2505 256.353 94.2505C256.784 94.2505 257.186 94.1426 257.559 93.9269C257.942 93.7014 258.246 93.3778 258.471 92.9561C258.706 92.5344 258.824 92.0441 258.824 91.4852ZM261.63 91.5146C261.63 90.6811 261.796 89.9505 262.13 89.3229C262.473 88.6855 262.944 88.1952 263.542 87.852C264.14 87.5088 264.826 87.3372 265.601 87.3372C266.582 87.3372 267.391 87.5725 268.028 88.0432C268.675 88.5041 269.112 89.166 269.337 90.029H267.528C267.381 89.6269 267.146 89.3131 266.822 89.0876C266.498 88.862 266.091 88.7493 265.601 88.7493C264.915 88.7493 264.366 88.9944 263.954 89.4847C263.552 89.9652 263.351 90.6418 263.351 91.5146C263.351 92.3873 263.552 93.0689 263.954 93.5592C264.366 94.0495 264.915 94.2946 265.601 94.2946C266.572 94.2946 267.214 93.8681 267.528 93.0149H269.337C269.102 93.8387 268.661 94.4957 268.013 94.986C267.366 95.4665 266.562 95.7067 265.601 95.7067C264.826 95.7067 264.14 95.5351 263.542 95.1919C262.944 94.8389 262.473 94.3486 262.13 93.721C261.796 93.0836 261.63 92.3481 261.63 91.5146ZM273.95 95.7067C273.313 95.7067 272.739 95.594 272.229 95.3684C271.729 95.1331 271.332 94.8193 271.038 94.427C270.744 94.025 270.587 93.5788 270.567 93.0885H272.303C272.332 93.4317 272.494 93.721 272.788 93.9563C273.092 94.1819 273.47 94.2946 273.921 94.2946C274.392 94.2946 274.754 94.2064 275.009 94.0299C275.274 93.8436 275.406 93.6082 275.406 93.3238C275.406 93.0198 275.259 92.7943 274.965 92.6472C274.681 92.5001 274.225 92.3383 273.597 92.1618C272.989 91.9951 272.494 91.8333 272.112 91.6764C271.729 91.5195 271.396 91.2792 271.111 90.9556C270.837 90.632 270.7 90.2055 270.7 89.6759C270.7 89.2445 270.827 88.8522 271.082 88.4992C271.337 88.1364 271.7 87.852 272.17 87.6461C272.651 87.4401 273.2 87.3372 273.818 87.3372C274.74 87.3372 275.48 87.5725 276.039 88.0432C276.608 88.5041 276.912 89.1366 276.951 89.9407H275.274C275.245 89.5779 275.098 89.2886 274.833 89.0729C274.568 88.8571 274.21 88.7493 273.759 88.7493C273.318 88.7493 272.979 88.8326 272.744 88.9993C272.509 89.166 272.391 89.3867 272.391 89.6612C272.391 89.877 272.47 90.0584 272.626 90.2055C272.783 90.3526 272.975 90.4702 273.2 90.5585C273.426 90.6369 273.759 90.7399 274.2 90.8674C274.789 91.0243 275.269 91.1861 275.642 91.3528C276.024 91.5097 276.353 91.745 276.627 92.0588C276.902 92.3726 277.044 92.7894 277.054 93.3091C277.054 93.77 276.926 94.1819 276.671 94.5447C276.416 94.9075 276.054 95.1919 275.583 95.3978C275.122 95.6038 274.578 95.7067 273.95 95.7067Z" fill="white"/>
<g filter="url(#filter1_d_0_1)">
<path d="M302.223 133.679C302.223 139.212 298.033 143.698 292.865 143.698C287.697 143.698 283.507 139.212 283.507 133.679C283.507 128.145 287.697 123.66 292.865 123.66C298.033 123.66 302.223 128.145 302.223 133.679Z" fill="#13B497"/>
<path d="M300.997 133.679C300.997 138.616 297.279 142.473 292.865 142.473C288.451 142.473 284.733 138.616 284.733 133.679C284.733 128.742 288.451 124.885 292.865 124.885C297.279 124.885 300.997 128.742 300.997 133.679Z" stroke="#2F363D" stroke-width="2.45154"/>
</g>
<defs>
<filter id="filter0_d_0_1" x="171.758" y="59.4113" width="152.375" height="98.694" filterUnits="userSpaceOnUse" color-interpolation-filters="sRGB">
<feFlood flood-opacity="0" result="BackgroundImageFix"/>
<feColorMatrix in="SourceAlpha" type="matrix" values="0 0 0 0 0 0 0 0 0 0 0 0 0 0 0 0 0 0 127 0" result="hardAlpha"/>
<feOffset dy="17.1608"/>
<feGaussianBlur stdDeviation="15.3221"/>
<feColorMatrix type="matrix" values="0 0 0 0 0 0 0 0 0 0 0 0 0 0 0 0 0 0 0.16 0"/>
<feBlend mode="normal" in2="BackgroundImageFix" result="effect1_dropShadow_0_1"/>
<feBlend mode="normal" in="SourceGraphic" in2="effect1_dropShadow_0_1" result="shape"/>
</filter>
<filter id="filter1_d_0_1" x="268.798" y="113.853" width="48.1349" height="49.4571" filterUnits="userSpaceOnUse" color-interpolation-filters="sRGB">
<feFlood flood-opacity="0" result="BackgroundImageFix"/>
<feColorMatrix in="SourceAlpha" type="matrix" values="0 0 0 0 0 0 0 0 0 0 0 0 0 0 0 0 0 0 127 0" result="hardAlpha"/>
<feOffset dy="4.90307"/>
<feGaussianBlur stdDeviation="7.35461"/>
<feColorMatrix type="matrix" values="0 0 0 0 0 0 0 0 0 0 0 0 0 0 0 0 0 0 0.38 0"/>
<feBlend mode="normal" in2="BackgroundImageFix" result="effect1_dropShadow_0_1"/>
<feBlend mode="normal" in="SourceGraphic" in2="effect1_dropShadow_0_1" result="shape"/>
</filter>
<linearGradient id="paint0_linear_0_1" x1="221.743" y1="100.949" x2="221.743" y2="194.095" gradientUnits="userSpaceOnUse">
<stop stop-color="#13B497" stop-opacity="0.35"/>
<stop offset="1" stop-color="#13B497" stop-opacity="0"/>
</linearGradient>
</defs>
</svg>
